<mxfile host="65bd71144e">
    <diagram name="Page-1" id="cAKSkjIYSAVjVEGufmWn">
        <mxGraphModel dx="942" dy="446" grid="1" gridSize="10" guides="1" tooltips="1" connect="1" arrows="1" fold="1" page="1" pageScale="1" pageWidth="850" pageHeight="1100" math="0" shadow="0">
            <root>
                <mxCell id="0"/>
                <mxCell id="1" parent="0"/>
                <mxCell id="rwNInLXDIpWYPPUrsyJV-5" value="" style="whiteSpace=wrap;html=1;aspect=fixed;" parent="1" vertex="1">
                    <mxGeometry x="267.5" y="40" width="250" height="250" as="geometry"/>
                </mxCell>
                <mxCell id="rwNInLXDIpWYPPUrsyJV-1" value="User" style="shape=umlActor;verticalLabelPosition=bottom;verticalAlign=top;html=1;" parent="1" vertex="1">
                    <mxGeometry x="150" y="80" width="30" height="60" as="geometry"/>
                </mxCell>
                <mxCell id="rwNInLXDIpWYPPUrsyJV-3" value="Login" style="ellipse;whiteSpace=wrap;html=1;" parent="1" vertex="1">
                    <mxGeometry x="355" y="60" width="105" height="40" as="geometry"/>
                </mxCell>
                <mxCell id="rwNInLXDIpWYPPUrsyJV-9" value="Coordenadas_Developer" style="ellipse;whiteSpace=wrap;html=1;" parent="1" vertex="1">
                    <mxGeometry x="345" y="170" width="145" height="40" as="geometry"/>
                </mxCell>
                <mxCell id="rwNInLXDIpWYPPUrsyJV-10" value="" style="endArrow=classic;html=1;rounded=0;entryX=-0.008;entryY=0.183;entryDx=0;entryDy=0;entryPerimeter=0;" parent="1" source="rwNInLXDIpWYPPUrsyJV-1" target="rwNInLXDIpWYPPUrsyJV-9" edge="1">
                    <mxGeometry width="50" height="50" relative="1" as="geometry">
                        <mxPoint x="380" y="270" as="sourcePoint"/>
                        <mxPoint x="350" y="170" as="targetPoint"/>
                    </mxGeometry>
                </mxCell>
                <mxCell id="rwNInLXDIpWYPPUrsyJV-11" value="Arbol" style="ellipse;whiteSpace=wrap;html=1;" parent="1" vertex="1">
                    <mxGeometry x="340" y="220" width="142" height="40" as="geometry"/>
                </mxCell>
                <mxCell id="rwNInLXDIpWYPPUrsyJV-12" value="" style="endArrow=classic;html=1;rounded=0;entryX=0;entryY=0.5;entryDx=0;entryDy=0;" parent="1" target="rwNInLXDIpWYPPUrsyJV-11" edge="1">
                    <mxGeometry width="50" height="50" relative="1" as="geometry">
                        <mxPoint x="180" y="120" as="sourcePoint"/>
                        <mxPoint x="354" y="187" as="targetPoint"/>
                    </mxGeometry>
                </mxCell>
                <mxCell id="2" value="" style="endArrow=classic;html=1;rounded=0;entryX=0;entryY=0.5;entryDx=0;entryDy=0;" edge="1" parent="1" target="rwNInLXDIpWYPPUrsyJV-3">
                    <mxGeometry width="50" height="50" relative="1" as="geometry">
                        <mxPoint x="176.16" y="108.3263878326996" as="sourcePoint"/>
                        <mxPoint x="339.99999999999994" y="170.00000000000006" as="targetPoint"/>
                    </mxGeometry>
                </mxCell>
                <mxCell id="3" value="Verificar Datos" style="ellipse;whiteSpace=wrap;html=1;" vertex="1" parent="1">
                    <mxGeometry x="355" y="110" width="105" height="40" as="geometry"/>
                </mxCell>
                <mxCell id="4" value="" style="endArrow=classic;html=1;rounded=0;entryX=0;entryY=0.5;entryDx=0;entryDy=0;" edge="1" parent="1" target="3">
                    <mxGeometry width="50" height="50" relative="1" as="geometry">
                        <mxPoint x="190" y="125.64638783269959" as="sourcePoint"/>
                        <mxPoint x="353.8399999999999" y="187.32000000000005" as="targetPoint"/>
                    </mxGeometry>
                </mxCell>
            </root>
        </mxGraphModel>
    </diagram>
</mxfile>